<!--<?xml version="1.0" encoding="UTF-8" standalone="no"?>

<svg
   width="290mm"
   height="290mm"
   viewBox="0 0 210 297"
   version="1.1"
   id="svg5"
   inkscape:version="1.1.2 (b8e25be8, 2022-02-05)"
   sodipodi:docname="apple.svg"
   xmlns:inkscape="http://www.inkscape.org/namespaces/inkscape"
   xmlns:sodipodi="http://sodipodi.sourceforge.net/DTD/sodipodi-0.dtd"
   xmlns="http://www.w3.org/2000/svg"
   xmlns:svg="http://www.w3.org/2000/svg">
  <sodipodi:namedview
     id="namedview7"
     pagecolor="#ffffff"
     bordercolor="#666666"
     borderopacity="1.0"
     inkscape:pageshadow="2"
     inkscape:pageopacity="0.0"
     inkscape:pagecheckerboard="0"
     inkscape:document-units="mm"
     showgrid="false"
     inkscape:snap-nodes="false"
     inkscape:zoom="0.53561134"
     inkscape:cx="199.77172"
     inkscape:cy="673.06267"
     inkscape:window-width="1440"
     inkscape:window-height="741"
     inkscape:window-x="0"
     inkscape:window-y="25"
     inkscape:window-maximized="0"
     inkscape:current-layer="layer1" />
  <defs
     id="defs2" />
  <g
     inkscape:label="Layer 1"
     inkscape:groupmode="layer"
     id="layer1">
    <path
       id="path1364"
       style="fill:#008000;stroke-width:0.666996"
       d="m 63.617929,74.099616 c -0.06154,-0.0018 -0.124131,-0.0012 -0.186297,0.0025 -2.639996,0.172432 -3.191866,3.233046 -3.082253,5.365931 -0.05765,5.142628 -0.72549,10.484181 0.846771,15.469906 2.431031,6.240867 6.325736,11.818137 10.89211,16.682727 38.69777,2.1112 34.07885,12.96697 38.90728,-19.404125 0.10301,-3.360479 -2.78842,-5.627301 -5.38808,-7.193658 -5.02102,-3.574102 -10.745109,-6.458276 -16.99018,-6.877104 -7.95014,-0.919636 -16.244023,-0.549236 -23.742217,-3.768794 -0.4104,-0.127812 -0.82638,-0.265152 -1.257131,-0.277479 z"
       sodipodi:nodetypes="ccccccccccc" />
    <path
       id="path1056"
       style="fill:#552200;stroke-width:0.666996"
       d="m 110.69269,68.46576 c -4.36695,6.340726 -6.77292,13.812846 -7.78329,21.39861 -1.02328,7.774934 -1.5148,15.69588 -0.71272,23.51198 0.59097,3.66904 5.71429,6.03136 8.50635,3.15354 2.91337,-2.63614 2.07312,-6.89543 2.64268,-10.37805 0.73362,-8.539585 3.70026,-16.952568 8.57862,-23.949618 1.4182,-1.694168 1.57815,-4.4348 -0.31101,-5.850102 -2.19155,-1.593809 -4.7201,-2.807638 -6.32291,-5.099343 -1.21236,-1.462065 -2.4112,-2.935222 -3.61791,-4.402002 -0.3266,0.538345 -0.65321,1.076665 -0.97981,1.614985 z" />
    <path
       style="fill:#ff0000;stroke-width:0.666996"
       d="m 98.133125,209.648 c 5.958525,-2.29342 9.654665,-2.28845 15.102205,0.0202 9.66776,4.09727 24.0752,1.50678 35.58955,-6.39906 10.57249,-7.25916 18.45929,-20.23964 21.87777,-36.00749 1.87559,-8.65119 2.02957,-28.69878 0.27358,-35.61733 -1.91211,-7.53371 -4.85846,-12.90846 -9.75277,-17.79113 -7.76439,-7.74592 -17.24697,-10.95199 -30.98303,-10.47538 -9.47275,0.32868 -13.57106,1.6164 -19.56409,6.14724 l -3.77925,2.8572 -6.77369,-3.47304 c -11.657003,-5.97682 -23.318906,-8.12693 -33.005625,-6.08525 -13.881553,2.92584 -24.117329,12.55167 -28.447545,26.75234 -1.591692,5.21984 -1.612353,20.55314 -0.04001,29.68928 2.306799,13.40372 7.234602,26.34346 13.003517,34.14547 6.549061,8.85712 16.092551,15.42461 25.488984,17.54055 6.523745,1.4691 15.206175,0.93035 21.010399,-1.3037 z"
       id="path1054" />
  </g>
</svg> -->

<!DOCTYPE svg PUBLIC "-//W3C//DTD SVG 1.1/EN" "https://www.w3.org/Graphics/SVG/1.1/DTD/svg11.dtd">

<svg xmlns="http://www.w3.org/2000/svg" xmlns:xlink="http://www.w3.org/1999/xlink" version="1.1" width="512px" height="512px" style="shape-rendering:geometricPrecision; text-rendering:geometricPrecision; image-rendering:optimizeQuality; fill-rule:evenodd; clip-rule:evenodd" transform="rotate(15) scale(0.65)">
    
<g><path style="opacity:0.997" fill="#e7c994" d="M 23.5,-0.5 C 28.8333,-0.5 34.1667,-0.5 39.5,-0.5C 47.878,3.32825 56.2114,7.49491 64.5,12C 70.5692,12.8045 76.5692,12.4712 82.5,11C 106.287,0.787086 129.954,1.12042 153.5,12C 159.5,12.6667 165.5,12.6667 171.5,12C 196.508,0.66733 221.508,0.66733 246.5,12C 249.482,12.498 252.482,12.6646 255.5,12.5C 255.5,174.5 255.5,336.5 255.5,498.5C 252.482,498.335 249.482,498.502 246.5,499C 221.496,510.333 196.496,510.333 171.5,499C 165.5,498.333 159.5,498.333 153.5,499C 129.954,509.88 106.287,510.213 82.5,500C 76.5692,498.529 70.5692,498.196 64.5,499C 56.2114,503.505 47.878,507.672 39.5,511.5C 34.1667,511.5 28.8333,511.5 23.5,511.5C 12.5,506.5 4.5,498.5 -0.5,487.5C -0.5,482.167 -0.5,476.833 -0.5,471.5C 3.32825,463.122 7.49491,454.789 12,446.5C 12.8045,440.431 12.4712,434.431 11,428.5C 0.787086,404.713 1.12042,381.046 12,357.5C 12.6667,351.5 12.6667,345.5 12,339.5C 0.66733,314.492 0.66733,289.492 12,264.5C 12.6667,258.5 12.6667,252.5 12,246.5C 0.66733,221.508 0.66733,196.508 12,171.5C 12.6667,165.5 12.6667,159.5 12,153.5C 1.12042,129.954 0.787086,106.287 11,82.5C 12.4712,76.5692 12.8045,70.5692 12,64.5C 7.49491,56.2114 3.32825,47.878 -0.5,39.5C -0.5,34.1667 -0.5,28.8333 -0.5,23.5C 4.5,12.5 12.5,4.5 23.5,-0.5 Z"/></g>
<g><path style="opacity:1" fill="#ab8646" d="M 471.5,-0.5 C 476.833,-0.5 482.167,-0.5 487.5,-0.5C 498.5,4.5 506.5,12.5 511.5,23.5C 511.5,28.8333 511.5,34.1667 511.5,39.5C 507.672,47.878 503.505,56.2114 499,64.5C 498.196,70.5692 498.529,76.5692 500,82.5C 510.213,106.287 509.88,129.954 499,153.5C 498.333,159.5 498.333,165.5 499,171.5C 510.333,196.508 510.333,221.508 499,246.5C 498.333,252.5 498.333,258.5 499,264.5C 510.333,289.492 510.333,314.492 499,339.5C 498.333,345.5 498.333,351.5 499,357.5C 509.88,381.046 510.213,404.713 500,428.5C 498.529,434.431 498.196,440.431 499,446.5C 503.505,454.789 507.672,463.122 511.5,471.5C 511.5,476.833 511.5,482.167 511.5,487.5C 506.5,498.5 498.5,506.5 487.5,511.5C 482.167,511.5 476.833,511.5 471.5,511.5C 463.122,507.672 454.789,503.505 446.5,499C 440.431,498.196 434.431,498.529 428.5,500C 404.713,510.213 381.046,509.88 357.5,499C 351.5,498.333 345.5,498.333 339.5,499C 314.504,510.333 289.504,510.333 264.5,499C 261.518,498.502 258.518,498.335 255.5,498.5C 255.5,336.5 255.5,174.5 255.5,12.5C 258.518,12.6646 261.518,12.498 264.5,12C 289.492,0.66733 314.492,0.66733 339.5,12C 345.5,12.6667 351.5,12.6667 357.5,12C 381.046,1.12042 404.713,0.787086 428.5,11C 434.431,12.4712 440.431,12.8045 446.5,12C 454.789,7.49491 463.122,3.32825 471.5,-0.5 Z"/></g>
<g><path style="opacity:1" fill="#dbad5c" d="M 84.5,78.5 C 93.974,76.6544 100.807,79.9877 105,88.5C 105.667,97.8333 105.667,107.167 105,116.5C 101.337,125.916 94.5039,129.416 84.5,127C 79.7336,124.571 76.9002,120.737 76,115.5C 75.3333,106.5 75.3333,97.5 76,88.5C 77.9779,84.3619 80.8112,81.0286 84.5,78.5 Z"/></g>
<g><path style="opacity:1" fill="#dbad5c" d="M 150.5,78.5 C 159.974,76.6544 166.807,79.9877 171,88.5C 171.667,107.833 171.667,127.167 171,146.5C 167.337,155.916 160.504,159.416 150.5,157C 145.734,154.571 142.9,150.737 142,145.5C 141.333,126.5 141.333,107.5 142,88.5C 143.978,84.3619 146.811,81.0286 150.5,78.5 Z"/></g>
<g><path style="opacity:1" fill="#dbad5c" d="M 216.5,78.5 C 225.974,76.6544 232.807,79.9877 237,88.5C 237.667,97.8333 237.667,107.167 237,116.5C 233.337,125.916 226.504,129.416 216.5,127C 211.734,124.571 208.9,120.737 208,115.5C 207.333,106.5 207.333,97.5 208,88.5C 209.978,84.3619 212.811,81.0286 216.5,78.5 Z"/></g>
<g><path style="opacity:1" fill="#dbad5c" d="M 282.5,78.5 C 291.974,76.6544 298.807,79.9877 303,88.5C 303.667,107.5 303.667,126.5 303,145.5C 299.892,155.644 293.059,159.477 282.5,157C 277.734,154.571 274.9,150.737 274,145.5C 273.333,126.5 273.333,107.5 274,88.5C 275.978,84.3619 278.811,81.0286 282.5,78.5 Z"/></g>
<g><path style="opacity:1" fill="#dbad5c" d="M 348.5,78.5 C 357.974,76.6544 364.807,79.9877 369,88.5C 369.667,97.5 369.667,106.5 369,115.5C 365.892,125.644 359.059,129.477 348.5,127C 343.734,124.571 340.9,120.737 340,115.5C 339.333,106.5 339.333,97.5 340,88.5C 341.978,84.3619 344.811,81.0286 348.5,78.5 Z"/></g>
<g><path style="opacity:1" fill="#dbad5c" d="M 414.5,78.5 C 423.974,76.6544 430.807,79.9877 435,88.5C 435.667,107.5 435.667,126.5 435,145.5C 431.892,155.644 425.059,159.477 414.5,157C 409.734,154.571 406.9,150.737 406,145.5C 405.333,126.5 405.333,107.5 406,88.5C 407.978,84.3619 410.811,81.0286 414.5,78.5 Z"/></g>
<g><path style="opacity:1" fill="#dbad5c" d="M 84.5,158.5 C 93.974,156.654 100.807,159.988 105,168.5C 105.667,189.5 105.667,210.5 105,231.5C 101.337,240.916 94.5039,244.416 84.5,242C 79.7336,239.571 76.9002,235.737 76,230.5C 75.3333,209.833 75.3333,189.167 76,168.5C 77.9779,164.362 80.8112,161.029 84.5,158.5 Z"/></g>
<g><path style="opacity:1" fill="#dbad5c" d="M 216.5,158.5 C 225.974,156.654 232.807,159.988 237,168.5C 237.667,189.5 237.667,210.5 237,231.5C 233.337,240.916 226.504,244.416 216.5,242C 211.734,239.571 208.9,235.737 208,230.5C 207.333,209.833 207.333,189.167 208,168.5C 209.978,164.362 212.811,161.029 216.5,158.5 Z"/></g>
<g><path style="opacity:1" fill="#dbad5c" d="M 348.5,158.5 C 357.974,156.654 364.807,159.988 369,168.5C 369.667,189.167 369.667,209.833 369,230.5C 365.892,240.644 359.059,244.477 348.5,242C 343.734,239.571 340.9,235.737 340,230.5C 339.333,209.833 339.333,189.167 340,168.5C 341.978,164.362 344.811,161.029 348.5,158.5 Z"/></g>
<g><path style="opacity:1" fill="#dbad5c" d="M 150.5,188.5 C 159.974,186.654 166.807,189.988 171,198.5C 171.667,207.833 171.667,217.167 171,226.5C 167.337,235.916 160.504,239.416 150.5,237C 145.734,234.571 142.9,230.737 142,225.5C 141.333,216.5 141.333,207.5 142,198.5C 143.978,194.362 146.811,191.029 150.5,188.5 Z"/></g>
<g><path style="opacity:1" fill="#dbad5c" d="M 282.5,188.5 C 291.974,186.654 298.807,189.988 303,198.5C 303.667,207.5 303.667,216.5 303,225.5C 299.892,235.644 293.059,239.477 282.5,237C 277.734,234.571 274.9,230.737 274,225.5C 273.333,216.5 273.333,207.5 274,198.5C 275.978,194.362 278.811,191.029 282.5,188.5 Z"/></g>
<g><path style="opacity:1" fill="#dbad5c" d="M 414.5,188.5 C 423.974,186.654 430.807,189.988 435,198.5C 435.667,207.5 435.667,216.5 435,225.5C 431.892,235.644 425.059,239.477 414.5,237C 409.734,234.571 406.9,230.737 406,225.5C 405.333,216.5 405.333,207.5 406,198.5C 407.978,194.362 410.811,191.029 414.5,188.5 Z"/></g>
<g><path style="opacity:1" fill="#dbad5c" d="M 150.5,268.5 C 159.974,266.654 166.807,269.988 171,278.5C 171.667,299.5 171.667,320.5 171,341.5C 167.337,350.916 160.504,354.416 150.5,352C 145.734,349.571 142.9,345.737 142,340.5C 141.333,319.833 141.333,299.167 142,278.5C 143.978,274.362 146.811,271.029 150.5,268.5 Z"/></g>
<g><path style="opacity:1" fill="#dbad5c" d="M 282.5,268.5 C 291.974,266.654 298.807,269.988 303,278.5C 303.667,299.167 303.667,319.833 303,340.5C 299.892,350.644 293.059,354.477 282.5,352C 277.734,349.571 274.9,345.737 274,340.5C 273.333,319.833 273.333,299.167 274,278.5C 275.978,274.362 278.811,271.029 282.5,268.5 Z"/></g>
<g><path style="opacity:1" fill="#dbad5c" d="M 414.5,268.5 C 423.974,266.654 430.807,269.988 435,278.5C 435.667,299.167 435.667,319.833 435,340.5C 431.892,350.644 425.059,354.477 414.5,352C 409.734,349.571 406.9,345.737 406,340.5C 405.333,319.833 405.333,299.167 406,278.5C 407.978,274.362 410.811,271.029 414.5,268.5 Z"/></g>
<g><path style="opacity:1" fill="#dbad5c" d="M 84.5,273.5 C 93.974,271.654 100.807,274.988 105,283.5C 105.667,292.833 105.667,302.167 105,311.5C 101.337,320.916 94.5039,324.416 84.5,322C 79.7336,319.571 76.9002,315.737 76,310.5C 75.3333,301.5 75.3333,292.5 76,283.5C 77.9779,279.362 80.8112,276.029 84.5,273.5 Z"/></g>
<g><path style="opacity:1" fill="#dbad5c" d="M 216.5,273.5 C 225.974,271.654 232.807,274.988 237,283.5C 237.667,292.833 237.667,302.167 237,311.5C 233.337,320.916 226.504,324.416 216.5,322C 211.734,319.571 208.9,315.737 208,310.5C 207.333,301.5 207.333,292.5 208,283.5C 209.978,279.362 212.811,276.029 216.5,273.5 Z"/></g>
<g><path style="opacity:1" fill="#dbad5c" d="M 348.5,273.5 C 357.974,271.654 364.807,274.988 369,283.5C 369.667,292.5 369.667,301.5 369,310.5C 365.892,320.644 359.059,324.477 348.5,322C 343.734,319.571 340.9,315.737 340,310.5C 339.333,301.5 339.333,292.5 340,283.5C 341.978,279.362 344.811,276.029 348.5,273.5 Z"/></g>
<g><path style="opacity:1" fill="#dbad5c" d="M 84.5,353.5 C 93.974,351.654 100.807,354.988 105,363.5C 105.667,382.833 105.667,402.167 105,421.5C 101.337,430.916 94.5039,434.416 84.5,432C 79.7336,429.571 76.9002,425.737 76,420.5C 75.3333,401.5 75.3333,382.5 76,363.5C 77.9779,359.362 80.8112,356.029 84.5,353.5 Z"/></g>
<g><path style="opacity:1" fill="#dbad5c" d="M 216.5,353.5 C 225.974,351.654 232.807,354.988 237,363.5C 237.667,382.833 237.667,402.167 237,421.5C 233.337,430.916 226.504,434.416 216.5,432C 211.734,429.571 208.9,425.737 208,420.5C 207.333,401.5 207.333,382.5 208,363.5C 209.978,359.362 212.811,356.029 216.5,353.5 Z"/></g>
<g><path style="opacity:1" fill="#dbad5c" d="M 348.5,353.5 C 357.974,351.654 364.807,354.988 369,363.5C 369.667,382.5 369.667,401.5 369,420.5C 365.892,430.644 359.059,434.477 348.5,432C 343.734,429.571 340.9,425.737 340,420.5C 339.333,401.5 339.333,382.5 340,363.5C 341.978,359.362 344.811,356.029 348.5,353.5 Z"/></g>
<g><path style="opacity:1" fill="#dbad5c" d="M 150.5,383.5 C 159.974,381.654 166.807,384.988 171,393.5C 171.667,402.833 171.667,412.167 171,421.5C 167.337,430.916 160.504,434.416 150.5,432C 145.734,429.571 142.9,425.737 142,420.5C 141.333,411.5 141.333,402.5 142,393.5C 143.978,389.362 146.811,386.029 150.5,383.5 Z"/></g>
<g><path style="opacity:1" fill="#dbad5c" d="M 282.5,383.5 C 291.974,381.654 298.807,384.988 303,393.5C 303.667,402.5 303.667,411.5 303,420.5C 299.892,430.644 293.059,434.477 282.5,432C 277.734,429.571 274.9,425.737 274,420.5C 273.333,411.5 273.333,402.5 274,393.5C 275.978,389.362 278.811,386.029 282.5,383.5 Z"/></g>
<g><path style="opacity:1" fill="#dbad5c" d="M 414.5,383.5 C 423.974,381.654 430.807,384.988 435,393.5C 435.667,402.5 435.667,411.5 435,420.5C 431.892,430.644 425.059,434.477 414.5,432C 409.734,429.571 406.9,425.737 406,420.5C 405.333,411.5 405.333,402.5 406,393.5C 407.978,389.362 410.811,386.029 414.5,383.5 Z"/></g>
</svg>
